<mxfile host="app.diagrams.net" agent="Mozilla/5.0 (Windows NT 10.0; Win64; x64) AppleWebKit/537.36 (KHTML, like Gecko) Chrome/138.0.0.0 Safari/537.36" version="28.0.9" pages="2">
  <diagram name="Page-1" id="RwTynX86H7eJMr4MD3kp">
    <mxGraphModel dx="1090" dy="646" grid="1" gridSize="10" guides="1" tooltips="1" connect="1" arrows="1" fold="1" page="1" pageScale="1" pageWidth="850" pageHeight="1100" math="0" shadow="0">
      <root>
        <mxCell id="0" />
        <mxCell id="1" parent="0" />
        <mxCell id="WinCRgHoNudZklmPcqB8-3" value="" style="edgeStyle=none;curved=1;rounded=0;orthogonalLoop=1;jettySize=auto;html=1;fontSize=12;startSize=8;endSize=8;strokeColor=#1783E8;" parent="1" source="WinCRgHoNudZklmPcqB8-1" target="WinCRgHoNudZklmPcqB8-2" edge="1">
          <mxGeometry relative="1" as="geometry" />
        </mxCell>
        <mxCell id="WinCRgHoNudZklmPcqB8-1" value="Mulai" style="rounded=0;whiteSpace=wrap;html=1;fillColor=#1ba1e2;fontColor=#ffffff;strokeColor=#006EAF;" parent="1" vertex="1">
          <mxGeometry x="370" y="140" width="120" height="40" as="geometry" />
        </mxCell>
        <mxCell id="WinCRgHoNudZklmPcqB8-5" value="" style="edgeStyle=none;curved=1;rounded=0;orthogonalLoop=1;jettySize=auto;html=1;fontSize=12;startSize=8;endSize=8;strokeColor=#1783E8;" parent="1" source="WinCRgHoNudZklmPcqB8-2" target="WinCRgHoNudZklmPcqB8-4" edge="1">
          <mxGeometry relative="1" as="geometry" />
        </mxCell>
        <mxCell id="WinCRgHoNudZklmPcqB8-2" value="Eksplorasi dan Visualisasi Data" style="rounded=0;whiteSpace=wrap;html=1;strokeColor=light-dark(#1783E8,#EDEDED);" parent="1" vertex="1">
          <mxGeometry x="370" y="200" width="120" height="40" as="geometry" />
        </mxCell>
        <mxCell id="WinCRgHoNudZklmPcqB8-7" value="" style="edgeStyle=none;curved=1;rounded=0;orthogonalLoop=1;jettySize=auto;html=1;fontSize=12;startSize=8;endSize=8;strokeColor=#1783E8;" parent="1" source="WinCRgHoNudZklmPcqB8-4" target="WinCRgHoNudZklmPcqB8-6" edge="1">
          <mxGeometry relative="1" as="geometry" />
        </mxCell>
        <mxCell id="WinCRgHoNudZklmPcqB8-9" value="" style="edgeStyle=none;curved=1;rounded=0;orthogonalLoop=1;jettySize=auto;html=1;fontSize=12;startSize=8;endSize=8;strokeColor=#1783E8;" parent="1" source="WinCRgHoNudZklmPcqB8-4" target="WinCRgHoNudZklmPcqB8-8" edge="1">
          <mxGeometry relative="1" as="geometry" />
        </mxCell>
        <mxCell id="WinCRgHoNudZklmPcqB8-4" value="Preprocessing Data" style="whiteSpace=wrap;html=1;rounded=0;strokeColor=#1783E8;" parent="1" vertex="1">
          <mxGeometry x="370" y="260" width="120" height="40" as="geometry" />
        </mxCell>
        <mxCell id="WinCRgHoNudZklmPcqB8-11" value="" style="edgeStyle=none;curved=1;rounded=0;orthogonalLoop=1;jettySize=auto;html=1;fontSize=12;startSize=8;endSize=8;strokeColor=#1783E8;" parent="1" source="WinCRgHoNudZklmPcqB8-6" target="WinCRgHoNudZklmPcqB8-10" edge="1">
          <mxGeometry relative="1" as="geometry" />
        </mxCell>
        <mxCell id="WinCRgHoNudZklmPcqB8-6" value="Data Training" style="shape=parallelogram;perimeter=parallelogramPerimeter;whiteSpace=wrap;html=1;fixedSize=1;rounded=0;strokeColor=#1783E8;" parent="1" vertex="1">
          <mxGeometry x="230" y="260" width="120" height="40" as="geometry" />
        </mxCell>
        <mxCell id="ojTPcuSKZU49MkjQcfde-63" value="" style="edgeStyle=none;curved=1;rounded=0;orthogonalLoop=1;jettySize=auto;html=1;fontSize=12;startSize=8;endSize=8;strokeColor=#1783E8;" parent="1" source="WinCRgHoNudZklmPcqB8-8" target="ojTPcuSKZU49MkjQcfde-54" edge="1">
          <mxGeometry relative="1" as="geometry" />
        </mxCell>
        <mxCell id="WinCRgHoNudZklmPcqB8-8" value="Data Testing" style="shape=parallelogram;perimeter=parallelogramPerimeter;whiteSpace=wrap;html=1;fixedSize=1;rounded=0;strokeColor=#1783E8;" parent="1" vertex="1">
          <mxGeometry x="550" y="260" width="120" height="40" as="geometry" />
        </mxCell>
        <mxCell id="ojTPcuSKZU49MkjQcfde-2" value="" style="edgeStyle=none;curved=1;rounded=0;orthogonalLoop=1;jettySize=auto;html=1;fontSize=12;startSize=8;endSize=8;strokeColor=#1783E8;" parent="1" source="WinCRgHoNudZklmPcqB8-10" target="ojTPcuSKZU49MkjQcfde-1" edge="1">
          <mxGeometry relative="1" as="geometry" />
        </mxCell>
        <mxCell id="WinCRgHoNudZklmPcqB8-10" value="Cek kestasioneran dalam rataan dan ragam" style="whiteSpace=wrap;html=1;rounded=0;strokeColor=#1783E8;" parent="1" vertex="1">
          <mxGeometry x="230" y="320" width="120" height="60" as="geometry" />
        </mxCell>
        <mxCell id="ojTPcuSKZU49MkjQcfde-13" value="" style="edgeStyle=none;curved=1;rounded=0;orthogonalLoop=1;jettySize=auto;html=1;fontSize=12;startSize=8;endSize=8;strokeColor=#1783E8;" parent="1" source="ojTPcuSKZU49MkjQcfde-1" target="ojTPcuSKZU49MkjQcfde-12" edge="1">
          <mxGeometry relative="1" as="geometry" />
        </mxCell>
        <mxCell id="ojTPcuSKZU49MkjQcfde-64" value="" style="edgeStyle=none;curved=1;rounded=0;orthogonalLoop=1;jettySize=auto;html=1;fontSize=12;startSize=8;endSize=8;strokeColor=#1783E8;" parent="1" source="ojTPcuSKZU49MkjQcfde-1" target="ojTPcuSKZU49MkjQcfde-4" edge="1">
          <mxGeometry relative="1" as="geometry" />
        </mxCell>
        <mxCell id="ojTPcuSKZU49MkjQcfde-1" value="" style="rhombus;whiteSpace=wrap;html=1;strokeColor=#1783E8;rounded=0;" parent="1" vertex="1">
          <mxGeometry x="220" y="400" width="140" height="90" as="geometry" />
        </mxCell>
        <mxCell id="ojTPcuSKZU49MkjQcfde-5" value="" style="edgeStyle=none;curved=1;rounded=0;orthogonalLoop=1;jettySize=auto;html=1;fontSize=12;startSize=8;endSize=8;strokeColor=#1783E8;" parent="1" target="ojTPcuSKZU49MkjQcfde-4" edge="1">
          <mxGeometry relative="1" as="geometry">
            <mxPoint x="170" y="436.3333333333335" as="sourcePoint" />
          </mxGeometry>
        </mxCell>
        <mxCell id="ojTPcuSKZU49MkjQcfde-3" value="Stasioner terhadap ragam dan rataan?" style="text;html=1;align=center;verticalAlign=middle;whiteSpace=wrap;rounded=0;" parent="1" vertex="1">
          <mxGeometry x="250" y="430" width="80" height="30" as="geometry" />
        </mxCell>
        <mxCell id="ojTPcuSKZU49MkjQcfde-4" value="Differencing dan/ atau Transformasi Box-Cox" style="whiteSpace=wrap;html=1;strokeColor=#1783E8;" parent="1" vertex="1">
          <mxGeometry x="50" y="415" width="120" height="60" as="geometry" />
        </mxCell>
        <mxCell id="ojTPcuSKZU49MkjQcfde-10" value="" style="endArrow=none;html=1;rounded=0;fontSize=12;startSize=8;endSize=8;curved=1;strokeColor=#1783E8;" parent="1" edge="1">
          <mxGeometry width="50" height="50" relative="1" as="geometry">
            <mxPoint x="100" y="415" as="sourcePoint" />
            <mxPoint x="100" y="350" as="targetPoint" />
          </mxGeometry>
        </mxCell>
        <mxCell id="ojTPcuSKZU49MkjQcfde-11" value="" style="endArrow=classic;html=1;rounded=0;fontSize=12;startSize=8;endSize=8;curved=1;strokeColor=#1783E8;" parent="1" edge="1">
          <mxGeometry width="50" height="50" relative="1" as="geometry">
            <mxPoint x="100" y="350" as="sourcePoint" />
            <mxPoint x="230" y="350" as="targetPoint" />
          </mxGeometry>
        </mxCell>
        <mxCell id="ojTPcuSKZU49MkjQcfde-16" value="" style="edgeStyle=none;curved=1;rounded=0;orthogonalLoop=1;jettySize=auto;html=1;fontSize=12;startSize=8;endSize=8;strokeColor=#1783E8;" parent="1" source="ojTPcuSKZU49MkjQcfde-12" target="ojTPcuSKZU49MkjQcfde-15" edge="1">
          <mxGeometry relative="1" as="geometry" />
        </mxCell>
        <mxCell id="ojTPcuSKZU49MkjQcfde-12" value="Identifikasi model ARIMA (p, d, q) berdasarkan ACF dan PACF&amp;nbsp;" style="whiteSpace=wrap;html=1;strokeColor=#1783E8;rounded=0;" parent="1" vertex="1">
          <mxGeometry x="220" y="520" width="140" height="60" as="geometry" />
        </mxCell>
        <mxCell id="ojTPcuSKZU49MkjQcfde-14" value="Ya" style="text;html=1;align=center;verticalAlign=middle;whiteSpace=wrap;rounded=0;strokeColor=#FFFFFF;" parent="1" vertex="1">
          <mxGeometry x="280" y="490" width="60" height="30" as="geometry" />
        </mxCell>
        <mxCell id="ojTPcuSKZU49MkjQcfde-20" value="" style="edgeStyle=none;curved=1;rounded=0;orthogonalLoop=1;jettySize=auto;html=1;fontSize=12;startSize=8;endSize=8;strokeColor=#1783E8;" parent="1" source="ojTPcuSKZU49MkjQcfde-15" target="ojTPcuSKZU49MkjQcfde-19" edge="1">
          <mxGeometry relative="1" as="geometry" />
        </mxCell>
        <mxCell id="ojTPcuSKZU49MkjQcfde-15" value="Pendugaan dan uji signifikansi parameter model ARIMA (p, d, q) dan pemilihan model tentatif berdasarkan nilai AIC terkecil" style="whiteSpace=wrap;html=1;strokeColor=#1783E8;rounded=0;" parent="1" vertex="1">
          <mxGeometry x="200" y="600" width="180" height="60" as="geometry" />
        </mxCell>
        <mxCell id="ojTPcuSKZU49MkjQcfde-31" value="" style="edgeStyle=none;curved=1;rounded=0;orthogonalLoop=1;jettySize=auto;html=1;fontSize=12;startSize=8;endSize=8;strokeColor=#1783E8;" parent="1" source="ojTPcuSKZU49MkjQcfde-19" target="ojTPcuSKZU49MkjQcfde-30" edge="1">
          <mxGeometry relative="1" as="geometry" />
        </mxCell>
        <mxCell id="ojTPcuSKZU49MkjQcfde-19" value="" style="rhombus;whiteSpace=wrap;html=1;strokeColor=#1783E8;rounded=0;" parent="1" vertex="1">
          <mxGeometry x="220" y="690" width="140" height="90" as="geometry" />
        </mxCell>
        <mxCell id="ojTPcuSKZU49MkjQcfde-21" value="Asumsi white noise terpenuhi?" style="text;html=1;align=center;verticalAlign=middle;whiteSpace=wrap;rounded=0;" parent="1" vertex="1">
          <mxGeometry x="240" y="720" width="100" height="30" as="geometry" />
        </mxCell>
        <mxCell id="ojTPcuSKZU49MkjQcfde-26" value="Tidak" style="text;html=1;align=center;verticalAlign=middle;whiteSpace=wrap;rounded=0;" parent="1" vertex="1">
          <mxGeometry x="170" y="710" width="60" height="30" as="geometry" />
        </mxCell>
        <mxCell id="ojTPcuSKZU49MkjQcfde-27" value="" style="endArrow=none;html=1;rounded=0;fontSize=12;startSize=8;endSize=8;curved=1;exitX=0;exitY=0.5;exitDx=0;exitDy=0;strokeColor=#1783E8;" parent="1" source="ojTPcuSKZU49MkjQcfde-19" edge="1">
          <mxGeometry width="50" height="50" relative="1" as="geometry">
            <mxPoint x="300" y="610" as="sourcePoint" />
            <mxPoint x="180" y="735" as="targetPoint" />
          </mxGeometry>
        </mxCell>
        <mxCell id="ojTPcuSKZU49MkjQcfde-28" value="" style="endArrow=none;html=1;rounded=0;fontSize=12;startSize=8;endSize=8;curved=1;strokeColor=#1783E8;" parent="1" edge="1">
          <mxGeometry width="50" height="50" relative="1" as="geometry">
            <mxPoint x="180" y="735" as="sourcePoint" />
            <mxPoint x="180" y="550" as="targetPoint" />
          </mxGeometry>
        </mxCell>
        <mxCell id="ojTPcuSKZU49MkjQcfde-29" value="" style="endArrow=classic;html=1;rounded=0;fontSize=12;startSize=8;endSize=8;curved=1;strokeColor=#1783E8;" parent="1" edge="1">
          <mxGeometry width="50" height="50" relative="1" as="geometry">
            <mxPoint x="180" y="550" as="sourcePoint" />
            <mxPoint x="220" y="550" as="targetPoint" />
          </mxGeometry>
        </mxCell>
        <mxCell id="ojTPcuSKZU49MkjQcfde-34" value="" style="edgeStyle=none;curved=1;rounded=0;orthogonalLoop=1;jettySize=auto;html=1;fontSize=12;startSize=8;endSize=8;strokeColor=#1783E8;" parent="1" source="ojTPcuSKZU49MkjQcfde-30" target="ojTPcuSKZU49MkjQcfde-33" edge="1">
          <mxGeometry relative="1" as="geometry" />
        </mxCell>
        <mxCell id="ojTPcuSKZU49MkjQcfde-30" value="" style="rhombus;whiteSpace=wrap;html=1;strokeColor=#1783E8;rounded=0;" parent="1" vertex="1">
          <mxGeometry x="390" y="690" width="140" height="90" as="geometry" />
        </mxCell>
        <mxCell id="ojTPcuSKZU49MkjQcfde-32" value="Asumsi Homogen terpenuhi?" style="text;html=1;align=center;verticalAlign=middle;whiteSpace=wrap;rounded=0;" parent="1" vertex="1">
          <mxGeometry x="400" y="720" width="120" height="30" as="geometry" />
        </mxCell>
        <mxCell id="ojTPcuSKZU49MkjQcfde-45" value="" style="edgeStyle=none;curved=1;rounded=0;orthogonalLoop=1;jettySize=auto;html=1;fontSize=12;startSize=8;endSize=8;strokeColor=#1783E8;" parent="1" source="ojTPcuSKZU49MkjQcfde-33" target="ojTPcuSKZU49MkjQcfde-44" edge="1">
          <mxGeometry relative="1" as="geometry" />
        </mxCell>
        <mxCell id="ojTPcuSKZU49MkjQcfde-33" value="Overfitting model" style="rounded=0;whiteSpace=wrap;html=1;strokeColor=#1783E8;" parent="1" vertex="1">
          <mxGeometry x="400" y="630" width="120" height="30" as="geometry" />
        </mxCell>
        <mxCell id="ojTPcuSKZU49MkjQcfde-35" value="Ya" style="text;html=1;align=center;verticalAlign=middle;whiteSpace=wrap;rounded=0;" parent="1" vertex="1">
          <mxGeometry x="340" y="710" width="60" height="30" as="geometry" />
        </mxCell>
        <mxCell id="ojTPcuSKZU49MkjQcfde-36" value="Ya" style="text;html=1;align=center;verticalAlign=middle;whiteSpace=wrap;rounded=0;" parent="1" vertex="1">
          <mxGeometry x="410" y="665" width="60" height="30" as="geometry" />
        </mxCell>
        <mxCell id="ojTPcuSKZU49MkjQcfde-37" value="" style="endArrow=none;html=1;rounded=0;fontSize=12;startSize=8;endSize=8;curved=1;exitX=1;exitY=0.5;exitDx=0;exitDy=0;strokeColor=#1783E8;" parent="1" source="ojTPcuSKZU49MkjQcfde-30" edge="1">
          <mxGeometry width="50" height="50" relative="1" as="geometry">
            <mxPoint x="580" y="610" as="sourcePoint" />
            <mxPoint x="630" y="735" as="targetPoint" />
          </mxGeometry>
        </mxCell>
        <mxCell id="ojTPcuSKZU49MkjQcfde-39" value="" style="endArrow=classic;html=1;rounded=0;fontSize=12;startSize=8;endSize=8;curved=1;entryX=0.5;entryY=1;entryDx=0;entryDy=0;strokeColor=#1783E8;" parent="1" target="ojTPcuSKZU49MkjQcfde-40" edge="1">
          <mxGeometry width="50" height="50" relative="1" as="geometry">
            <mxPoint x="630" y="736" as="sourcePoint" />
            <mxPoint x="580" y="686" as="targetPoint" />
          </mxGeometry>
        </mxCell>
        <mxCell id="ojTPcuSKZU49MkjQcfde-41" value="" style="edgeStyle=none;curved=1;rounded=0;orthogonalLoop=1;jettySize=auto;html=1;fontSize=12;startSize=8;endSize=8;entryX=1;entryY=0.5;entryDx=0;entryDy=0;strokeColor=#1783E8;" parent="1" source="ojTPcuSKZU49MkjQcfde-40" target="ojTPcuSKZU49MkjQcfde-33" edge="1">
          <mxGeometry relative="1" as="geometry" />
        </mxCell>
        <mxCell id="ojTPcuSKZU49MkjQcfde-40" value="Pemodelan ARCH/GARCH" style="rounded=0;whiteSpace=wrap;html=1;strokeColor=#1783E8;" parent="1" vertex="1">
          <mxGeometry x="570" y="625" width="120" height="40" as="geometry" />
        </mxCell>
        <mxCell id="ojTPcuSKZU49MkjQcfde-42" value="Tidak" style="text;html=1;align=center;verticalAlign=middle;whiteSpace=wrap;rounded=0;" parent="1" vertex="1">
          <mxGeometry x="520" y="712" width="60" height="30" as="geometry" />
        </mxCell>
        <mxCell id="ojTPcuSKZU49MkjQcfde-47" value="" style="edgeStyle=none;curved=1;rounded=0;orthogonalLoop=1;jettySize=auto;html=1;fontSize=12;startSize=8;endSize=8;strokeColor=#1783E8;" parent="1" source="ojTPcuSKZU49MkjQcfde-44" target="ojTPcuSKZU49MkjQcfde-46" edge="1">
          <mxGeometry relative="1" as="geometry" />
        </mxCell>
        <mxCell id="ojTPcuSKZU49MkjQcfde-44" value="Pemlihan Model terbaik berdasarkan signifikansi semua parameter, nilai AIC terkecil, sisaan white noise" style="whiteSpace=wrap;html=1;strokeColor=#1783E8;rounded=0;" parent="1" vertex="1">
          <mxGeometry x="390" y="520" width="140" height="80" as="geometry" />
        </mxCell>
        <mxCell id="ojTPcuSKZU49MkjQcfde-46" value="Menambahkan variabel eksogen Meterologi dan hasil STCCF" style="whiteSpace=wrap;html=1;strokeColor=#1783E8;rounded=0;" parent="1" vertex="1">
          <mxGeometry x="397" y="440" width="123" height="60" as="geometry" />
        </mxCell>
        <mxCell id="ojTPcuSKZU49MkjQcfde-50" value="" style="edgeStyle=none;curved=1;rounded=0;orthogonalLoop=1;jettySize=auto;html=1;fontSize=12;startSize=8;endSize=8;strokeColor=#1783E8;" parent="1" source="ojTPcuSKZU49MkjQcfde-48" target="ojTPcuSKZU49MkjQcfde-46" edge="1">
          <mxGeometry relative="1" as="geometry" />
        </mxCell>
        <mxCell id="ojTPcuSKZU49MkjQcfde-48" value="Z_lt" style="shape=document;whiteSpace=wrap;html=1;boundedLbl=1;fillColor=#1ba1e2;fontColor=#ffffff;strokeColor=#006EAF;" parent="1" vertex="1">
          <mxGeometry x="550" y="447" width="90" height="46" as="geometry" />
        </mxCell>
        <mxCell id="ojTPcuSKZU49MkjQcfde-55" value="" style="edgeStyle=none;curved=1;rounded=0;orthogonalLoop=1;jettySize=auto;html=1;fontSize=12;startSize=8;endSize=8;strokeColor=#1783E8;" parent="1" source="ojTPcuSKZU49MkjQcfde-53" target="ojTPcuSKZU49MkjQcfde-54" edge="1">
          <mxGeometry relative="1" as="geometry" />
        </mxCell>
        <mxCell id="ojTPcuSKZU49MkjQcfde-53" value="Prediksi dan transformasi jika diperlukan" style="rounded=0;whiteSpace=wrap;html=1;strokeColor=#1783E8;" parent="1" vertex="1">
          <mxGeometry x="400" y="355" width="120" height="60" as="geometry" />
        </mxCell>
        <mxCell id="ojTPcuSKZU49MkjQcfde-57" value="" style="edgeStyle=none;curved=1;rounded=0;orthogonalLoop=1;jettySize=auto;html=1;fontSize=12;startSize=8;endSize=8;" parent="1" source="ojTPcuSKZU49MkjQcfde-54" edge="1">
          <mxGeometry relative="1" as="geometry">
            <mxPoint x="690" y="385" as="targetPoint" />
          </mxGeometry>
        </mxCell>
        <mxCell id="ojTPcuSKZU49MkjQcfde-54" value="Evaluasi performa model dengan MAPE, MAE dan RMSE" style="whiteSpace=wrap;html=1;rounded=0;strokeColor=#1783E8;" parent="1" vertex="1">
          <mxGeometry x="550" y="355" width="120" height="60" as="geometry" />
        </mxCell>
        <mxCell id="ojTPcuSKZU49MkjQcfde-58" value="Selesai" style="rounded=0;whiteSpace=wrap;html=1;fillColor=#1ba1e2;fontColor=#ffffff;strokeColor=#006EAF;" parent="1" vertex="1">
          <mxGeometry x="690" y="365" width="120" height="40" as="geometry" />
        </mxCell>
        <mxCell id="ojTPcuSKZU49MkjQcfde-65" value="Tidak" style="text;html=1;align=center;verticalAlign=middle;whiteSpace=wrap;rounded=0;" parent="1" vertex="1">
          <mxGeometry x="170" y="417" width="60" height="30" as="geometry" />
        </mxCell>
        <mxCell id="ojTPcuSKZU49MkjQcfde-66" value="" style="edgeStyle=none;curved=1;rounded=0;orthogonalLoop=1;jettySize=auto;html=1;fontSize=12;startSize=8;endSize=8;strokeColor=#1783E8;entryX=0.5;entryY=1;entryDx=0;entryDy=0;exitX=0.5;exitY=0;exitDx=0;exitDy=0;" parent="1" source="ojTPcuSKZU49MkjQcfde-46" target="ojTPcuSKZU49MkjQcfde-53" edge="1">
          <mxGeometry relative="1" as="geometry">
            <mxPoint x="451" y="448" as="sourcePoint" />
            <mxPoint x="450" y="428" as="targetPoint" />
          </mxGeometry>
        </mxCell>
      </root>
    </mxGraphModel>
  </diagram>
  <diagram id="XSxgiswzm7m-U_qMnWaP" name="Page-2">
    <mxGraphModel dx="872" dy="917" grid="0" gridSize="10" guides="1" tooltips="1" connect="1" arrows="1" fold="1" page="0" pageScale="1" pageWidth="850" pageHeight="1100" math="0" shadow="0">
      <root>
        <mxCell id="0" />
        <mxCell id="1" parent="0" />
        <mxCell id="AG117zdH04O-NHq_HQE3-3" value="" style="edgeStyle=none;curved=1;rounded=0;orthogonalLoop=1;jettySize=auto;html=1;fontSize=12;startSize=8;endSize=8;" edge="1" parent="1" source="AG117zdH04O-NHq_HQE3-1" target="AG117zdH04O-NHq_HQE3-2">
          <mxGeometry relative="1" as="geometry" />
        </mxCell>
        <mxCell id="AG117zdH04O-NHq_HQE3-1" value="Mulai" style="rounded=0;whiteSpace=wrap;html=1;fillColor=#1ba1e2;fontColor=#ffffff;strokeColor=#006EAF;" vertex="1" parent="1">
          <mxGeometry x="105" y="-75" width="120" height="40" as="geometry" />
        </mxCell>
        <mxCell id="AG117zdH04O-NHq_HQE3-2" value="&lt;span style=&quot;white-space: normal;&quot;&gt;Mendefinisikan&amp;nbsp;&amp;nbsp;&lt;/span&gt;" style="rounded=0;whiteSpace=wrap;html=1;" vertex="1" parent="1">
          <mxGeometry x="103" y="-10" width="120" height="44" as="geometry" />
        </mxCell>
      </root>
    </mxGraphModel>
  </diagram>
</mxfile>
